# Blender v2.79 (sub 0) OBJ File: ''
# www.blender.org
mtllib murata.mtl
o Mesh1_Doorknob_decorative1_Component_1_1_Model.002
v 1.321980 0.328373 -0.028424
v 1.321980 0.350152 -0.028424
v 1.314050 0.339262 -0.028424
v 1.326200 0.339729 -0.028424
v 1.327540 0.336944 -0.028424
v 1.337840 0.328373 -0.028424
v 1.337840 0.328373 -0.030939
v 1.321980 0.328373 -0.030939
v 1.345780 0.339262 -0.030939
v 1.345780 0.339262 -0.028424
v 1.337840 0.350152 -0.030939
v 1.314050 0.339262 -0.030939
v 1.321980 0.350152 -0.030939
v 1.337840 0.350152 -0.028424
v 1.328560 0.342047 -0.028424
v 1.326200 0.339729 -0.015221
v 1.326200 0.339729 -0.011448
v 1.328560 0.342047 -0.011448
v 1.327540 0.336944 -0.015221
v 1.331260 0.336478 -0.028424
v 1.331260 0.336478 -0.015221
v 1.333630 0.338796 -0.028424
v 1.332280 0.341581 -0.028424
v 1.332280 0.341581 -0.011448
v 1.320670 0.337255 -0.011448
v 1.307990 0.336921 -0.011448
v 1.295840 0.339818 -0.011448
v 1.286320 0.339606 -0.011448
v 1.279560 0.337824 -0.011448
v 1.279250 0.336294 -0.011448
v 1.287920 0.338115 -0.011448
v 1.297430 0.337758 -0.011448
v 1.309570 0.334837 -0.011448
v 1.322230 0.334098 -0.011448
v 1.331260 0.336478 -0.011448
v 1.333630 0.338796 -0.011448
v 1.320670 0.337255 -0.015221
v 1.279250 0.336294 -0.015221
v 1.279560 0.337824 -0.015221
v 1.286320 0.339606 -0.015221
v 1.295840 0.339818 -0.015221
v 1.307990 0.336921 -0.015221
v 1.322230 0.334098 -0.015221
v 1.309570 0.334837 -0.015221
v 1.297430 0.337758 -0.015221
v 1.287920 0.338115 -0.015221
vt -0.625000 1.082530
vt -1.250000 0.000000
vt -0.625000 -1.082530
vt 0.625000 -1.082530
vt 1.250000 0.000000
vt 0.625000 1.082530
vt -0.148272 0.250000
vt 0.148272 0.250000
vt 0.148272 1.562500
vt 0.148272 1.937500
vt -0.148272 1.937500
vt -0.148272 0.250000
vt 0.148272 0.250000
vt 0.148272 1.562500
vt -0.148272 1.562500
vt -0.148272 0.250000
vt 0.148272 0.250000
vt 0.148272 1.562500
vt -0.148272 1.562500
vt -0.148272 0.250000
vt 0.148272 0.250000
vt 0.148272 1.937500
vt -0.148272 1.937500
vt 0.732178 1.937500
vt 0.232178 1.937500
vt 0.232178 1.562500
vt 0.732178 1.562500
vt 3.992130 -0.295130
vt 3.968040 -0.143022
vt 3.435010 0.034101
vt 2.685300 0.055185
vt 1.727660 -0.232753
vt 0.728205 -0.199583
vt 0.292892 0.046390
vt 0.186621 -0.230457
vt -0.106272 -0.276847
vt 0.605463 -0.513351
vt 1.602760 -0.439918
vt 2.559670 -0.149527
vt 3.308830 -0.114107
vt 0.916004 1.937500
vt 0.762000 1.937500
vt 0.762000 1.562500
vt 0.916004 1.562500
vt 3.810690 1.937500
vt 3.249000 1.937500
vt 3.249000 1.562500
vt 3.810690 1.562500
vt 3.432690 1.937500
vt 2.682690 1.937500
vt 2.682690 1.562500
vt 3.432690 1.562500
vt 2.587470 1.937500
vt 1.587470 1.937500
vt 1.587470 1.562500
vt 2.587470 1.562500
vt 1.734420 1.937500
vt 0.734425 1.937500
vt 0.734425 1.562500
vt 1.734420 1.562500
vt -3.227720 1.937500
vt -3.934590 1.937500
vt -3.934590 1.562500
vt -3.227720 1.562500
vt -2.549750 1.937500
vt -3.299750 1.937500
vt -3.299750 1.562500
vt -2.549750 1.562500
vt -1.405950 1.937500
vt -2.405950 1.937500
vt -2.405950 1.562500
vt -1.405950 1.562500
vt -0.566131 1.937500
vt -1.566130 1.937500
vt -1.566130 1.562500
vt -0.566131 1.562500
vt 0.013549 1.937500
vt -0.736451 1.937500
vt -0.736451 1.562500
vt 0.013549 1.562500
vt -0.148272 0.250000
vt 0.148272 0.250000
vt 0.148272 1.937500
vt -0.148272 1.937500
vt -0.148272 1.562500
vt -0.148272 0.250000
vt 0.148272 0.250000
vt 0.148272 1.937500
vt -0.148272 1.937500
vt -0.156250 -0.270633
vt -0.156250 0.270633
vt -0.312500 -0.000000
vt -0.073223 0.011597
vt -0.046655 -0.057614
vt 0.156250 -0.270633
vt 1.000000 0.000000
vt 1.000000 0.062500
vt 0.666667 0.062500
vt 0.666667 0.000000
vt 1.333330 0.000000
vt 1.333330 0.062500
vt 1.666670 0.000000
vt 1.666670 0.062500
vt 2.000000 0.000000
vt 2.000000 0.062500
vt 0.333333 0.062500
vt -0.000000 0.062500
vt -0.000000 0.000000
vt 0.333333 -0.000000
vt -0.026568 0.069212
vt 0.156250 0.270633
vt 0.026568 -0.069212
vt 0.073223 -0.011597
vt 0.046655 0.057614
vt -0.026568 0.069212
vt -0.073223 0.011597
vt -0.182051 -0.049896
vt -0.431914 -0.058188
vt -0.671326 0.013796
vt -0.858752 0.008525
vt -0.992010 -0.035756
vt -0.998033 -0.073783
vt -0.827209 -0.028527
vt -0.639918 -0.037382
vt -0.400691 -0.109979
vt -0.151366 -0.128338
vt 0.026568 -0.069212
vt 0.073223 -0.011597
vt 0.046655 0.057614
vt 0.312500 -0.000000
vn 0.0000 0.0000 -1.0000
vn -0.4358 0.9000 0.0000
vn -0.9922 0.1245 -0.0000
vn -0.9250 0.3800 0.0000
vn -0.7298 0.6837 0.0002
vn -0.7146 -0.6995 -0.0000
vn 0.4359 -0.9000 0.0000
vn 0.4181 -0.9084 0.0000
vn 0.7146 0.6995 -0.0000
vn -0.3339 0.9426 0.0000
vn -0.9922 0.1246 -0.0000
vn -0.3866 0.9222 -0.0000
vn -0.2170 0.9762 -0.0000
vn 0.1652 0.9863 0.0000
vn 0.1621 0.9868 0.0000
vn 0.1329 -0.9911 0.0000
vn 0.3170 -0.9484 0.0000
vn -0.2128 -0.9771 0.0000
vn -0.2287 -0.9735 0.0000
vn 0.1549 -0.9879 0.0000
vn 0.6578 -0.7532 -0.0001
vn 0.9922 -0.1245 0.0000
vn 0.0000 -0.0000 1.0000
vn 0.5887 -0.8083 0.0000
vn -0.5887 -0.8083 0.0000
vn 1.0000 -0.0000 0.0000
vn 0.5887 0.8083 -0.0001
vn 0.5887 0.8083 -0.0000
vn 0.0000 1.0000 0.0000
vn -1.0000 -0.0000 0.0000
vn -0.9093 0.4162 -0.0000
usemtl FrontColor.002
s 1
f 11/1/1 9/2/1 7/3/1 8/4/1 12/5/1 13/6/1
f 15/7/2 4/8/3 16/9/4 17/10/5 18/11/2
f 4/12/3 5/13/6 19/14/6 16/15/4
f 5/16/6 20/17/7 21/18/8 19/19/6
f 23/20/9 15/21/2 18/22/2 24/23/9
f 25/24/10 17/25/5 16/26/4 37/27/10
f 38/28/1 39/29/1 40/30/1 41/31/1 42/32/1 37/33/1 16/34/1 19/35/1 21/36/1 43/37/1 44/38/1 45/39/1 46/40/1
f 30/41/11 29/42/11 39/43/11 38/44/11
f 29/45/12 28/46/13 40/47/13 39/48/12
f 28/49/13 27/50/14 41/51/14 40/52/13
f 27/53/14 26/54/15 42/55/15 41/56/14
f 26/57/15 25/58/10 37/59/10 42/60/15
f 31/61/16 30/62/17 38/63/17 46/64/16
f 32/65/18 31/66/16 46/67/16 45/68/18
f 33/69/19 32/70/18 45/71/18 44/72/19
f 34/73/20 33/74/19 44/75/19 43/76/20
f 35/77/21 34/78/20 43/79/20 21/80/8
f 20/81/7 22/82/22 36/83/22 35/84/21 21/85/8
f 22/86/22 23/87/9 24/88/9 36/89/22
usemtl Metal_Corrogated_Shiny.003
f 1/90/23 2/91/23 3/92/23
f 2/91/23 1/90/23 4/93/23
f 4/93/23 1/90/23 5/94/23
f 5/94/23 1/90/23 6/95/23
f 7/96/24 6/97/24 1/98/25 8/99/25
f 7/96/24 9/100/26 10/101/26 6/97/24
f 9/100/26 11/102/27 14/103/28 10/101/26
f 13/104/29 2/105/29 14/103/28 11/102/27
f 3/106/30 2/107/31 13/108/31 12/109/30
f 1/98/25 3/106/30 12/109/30 8/99/25
f 2/91/23 15/110/23 14/111/23
f 15/110/23 2/91/23 4/93/23
f 5/94/23 6/95/23 20/112/23
f 20/112/23 6/95/23 22/113/23
f 14/111/23 22/113/23 6/95/23
f 14/111/23 23/114/23 22/113/23
f 14/111/23 15/110/23 23/114/23
f 18/115/23 17/116/23 25/117/23 26/118/23 27/119/23 28/120/23 29/121/23 30/122/23 31/123/23 32/124/23 33/125/23 34/126/23 35/127/23 36/128/23 24/129/23
f 14/111/23 6/95/23 10/130/23
o Mesh4_Model.002
v 0.000000 0.000001 -3.310000
v 0.162581 0.000001 -3.147420
v 0.000000 0.000000 0.000000
v 4.470000 0.000001 -3.310000
v 0.000000 1.080001 -3.310000
v 4.470000 1.080001 -3.310000
v 0.000000 1.080000 0.000000
v 0.898432 0.000000 0.000000
v 0.898432 0.795775 0.000000
v 1.414050 0.795775 0.000000
v 1.414050 0.000000 0.000000
v 4.470000 0.000000 0.000000
v 4.470000 1.080000 0.000000
v 0.162581 0.000000 -0.162581
v 4.307420 0.000000 -0.162581
v 4.307420 0.000001 -3.147420
v 0.931751 0.033319 -0.162581
v 0.162581 1.080000 -0.162581
v 0.162581 1.080001 -3.147420
v 4.307420 1.080001 -3.147420
v 1.380730 0.033319 0.000000
v 1.380730 0.762455 0.000000
v 0.931751 0.762455 0.000000
v 0.931751 0.033319 0.000000
v 1.380730 0.033319 -0.162581
v 1.380730 0.762455 -0.162581
v 0.931751 0.762455 -0.162581
v 4.307420 1.080000 -0.162581
vt 0.000000 130.315002
vt -6.400820 123.914001
vt 0.000000 0.000000
vt -175.983994 130.315002
vt -6.400820 6.400820
vt -35.371300 0.000000
vt -169.582993 6.400820
vt -169.582993 123.914001
vt -6.400820 0.000000
vt -36.683102 1.311780
vt -169.582993 0.000000
vt -6.400820 42.519699
vt 6.400820 0.000000
vt 123.914001 0.000000
vt 123.914001 42.519699
vt 6.400820 42.519699
vt 6.400820 0.000000
vt 169.582993 0.000000
vt 169.582993 42.519699
vt 6.400820 42.519699
vt -175.983994 0.000000
vt -55.671101 0.000000
vt 55.671101 0.000000
vt 54.359299 1.311780
vt 35.371300 0.000000
vt 55.671101 31.329700
vt 54.359299 30.017900
vt 36.683102 30.017900
vt 35.371300 31.329700
vt 36.683102 1.311780
vt 36.683102 0.000000
vt 54.359299 0.000000
vt 54.359299 6.400820
vt 36.683102 6.400820
vt 0.000000 1.311780
vt 0.000000 30.017900
vt -6.400820 30.017900
vt -6.400820 1.311780
vt -54.359299 0.000000
vt -36.683102 0.000000
vt -36.683102 6.400820
vt -54.359299 6.400820
vt 0.000000 30.017900
vt 0.000000 1.311780
vt 6.400820 1.311780
vt 6.400820 30.017900
vt -36.683102 30.017900
vt -54.359299 30.017900
vt -169.582993 42.519699
vt -54.359299 1.311780
vt -123.914001 0.000000
vt -6.400820 0.000000
vt -6.400820 42.519699
vt -123.914001 42.519699
vt 169.582993 6.400820
vt 175.983994 0.000000
vt 169.582993 123.914001
vt 6.400820 6.400820
vt 0.000000 0.000000
vt 0.000000 130.315002
vt 6.400820 123.914001
vt 175.983994 130.315002
vt -2.933070 0.000000
vt 0.000000 0.000000
vt 0.000000 0.708661
vt -2.933070 0.708661
vt -2.171920 0.000000
vt 0.000000 0.708661
vt -2.171920 0.708661
vt 0.589522 0.000000
vt 0.589522 0.522162
vt 0.927852 0.522162
vt 0.927852 0.000000
vt 2.933070 0.000000
vt 2.933070 0.708661
vt 0.000000 0.000000
vt 2.171920 0.000000
vt 2.171920 0.708661
vt 0.000000 0.708661
vn 0.0000 -1.0000 -0.0000
vn 0.0000 0.0000 -1.0000
vn 1.0000 0.0000 0.0000
vn 0.0000 -0.0000 1.0000
vn 0.0000 1.0000 0.0000
vn -1.0000 0.0000 0.0000
usemtl FrontColor.002
s 1
f 47/131/32 48/132/32 49/133/32
f 48/132/32 47/131/32 50/134/32
f 49/133/32 60/135/32 54/136/32
f 60/135/32 49/133/32 48/132/32
f 61/137/32 60/135/32 48/132/32 62/138/32
f 54/136/32 60/135/32 61/137/32
f 60/139/33 63/140/33 61/141/33
f 63/140/33 60/139/33 64/142/33
f 60/143/34 48/144/34 65/145/34 64/146/34
f 48/147/35 62/148/35 66/149/35 65/150/35
f 48/132/32 50/134/32 62/138/32
f 62/138/32 50/134/32 61/137/32
f 58/151/32 61/137/32 50/134/32
f 57/152/32 61/137/32 58/151/32
f 54/136/32 61/137/32 57/152/32
f 57/153/35 67/154/35 54/155/35
f 67/154/35 57/153/35 56/156/35
f 67/154/35 56/156/35 68/157/35
f 68/157/35 56/156/35 69/158/35
f 55/159/35 69/158/35 56/156/35
f 55/159/35 70/160/35 69/158/35
f 54/155/35 70/160/35 55/159/35
f 70/160/35 54/155/35 67/154/35
f 70/161/36 67/162/36 71/163/36 63/164/36
f 67/165/37 68/166/37 72/167/37 71/168/37
f 68/169/32 69/170/32 73/171/32 72/172/32
f 69/173/34 70/174/34 63/175/34 73/176/34
f 63/140/33 64/142/33 73/177/33
f 73/177/33 64/142/33 72/178/33
f 74/179/33 72/178/33 64/142/33
f 74/179/33 71/180/33 72/178/33
f 61/141/33 71/180/33 74/179/33
f 71/180/33 61/141/33 63/140/33
f 62/181/37 61/182/37 74/183/37 66/184/37
f 74/185/36 59/186/36 66/187/36
f 64/188/36 59/186/36 74/185/36
f 64/188/36 53/189/36 59/186/36
f 53/189/36 64/188/36 51/190/36
f 65/191/36 51/190/36 64/188/36
f 51/190/36 65/191/36 52/192/36
f 52/192/36 65/191/36 66/187/36
f 52/192/36 66/187/36 59/186/36
usemtl Polished_Concrete_New.001
f 50/193/33 47/194/33 51/195/33 52/196/33
f 47/197/37 49/133/37 53/198/37 51/199/37
f 49/133/35 54/200/35 55/201/35 56/202/35 57/203/35 58/204/35 59/205/35 53/198/35
f 58/206/34 50/207/34 52/208/34 59/209/34
o Mesh2_Doorknob_decorative2_Component_1_1_Model.002
v 1.316690 0.348894 -0.093812
v 1.316690 0.327114 -0.093812
v 1.308750 0.338004 -0.093812
v 1.320900 0.337537 -0.093812
v 1.322250 0.340322 -0.093812
v 1.332550 0.348894 -0.093812
v 1.332550 0.348894 -0.091297
v 1.316690 0.348894 -0.091297
v 1.340480 0.338004 -0.091297
v 1.340480 0.338004 -0.093812
v 1.332550 0.327114 -0.091297
v 1.308750 0.338004 -0.091297
v 1.316690 0.327114 -0.091297
v 1.332550 0.327114 -0.093812
v 1.323270 0.335219 -0.093812
v 1.320900 0.337537 -0.107015
v 1.320900 0.337537 -0.110788
v 1.323270 0.335219 -0.110788
v 1.322250 0.340322 -0.107015
v 1.325970 0.340789 -0.093812
v 1.325970 0.340789 -0.107015
v 1.328330 0.338471 -0.093812
v 1.326990 0.335686 -0.093812
v 1.326990 0.335686 -0.110788
v 1.315380 0.340012 -0.110788
v 1.302690 0.340345 -0.110788
v 1.290540 0.337449 -0.110788
v 1.281030 0.337661 -0.110788
v 1.274260 0.339443 -0.110788
v 1.273960 0.340973 -0.110788
v 1.282630 0.339152 -0.110788
v 1.292130 0.339508 -0.110788
v 1.304280 0.342429 -0.110788
v 1.316930 0.343168 -0.110788
v 1.325970 0.340789 -0.110788
v 1.328330 0.338471 -0.110788
v 1.315380 0.340012 -0.107015
v 1.273960 0.340973 -0.107015
v 1.274260 0.339443 -0.107015
v 1.281030 0.337661 -0.107015
v 1.290540 0.337449 -0.107015
v 1.302690 0.340345 -0.107015
v 1.316930 0.343168 -0.107015
v 1.304280 0.342429 -0.107015
v 1.292130 0.339508 -0.107015
v 1.282630 0.339152 -0.107015
vt -0.625000 1.082530
vt -1.250000 0.000000
vt -0.625000 -1.082530
vt 0.625000 -1.082530
vt 1.250000 0.000000
vt 0.625000 1.082530
vt -0.148272 0.250000
vt 0.148272 0.250000
vt 0.148272 1.562500
vt 0.148272 1.937500
vt -0.148272 1.937500
vt -0.148272 0.250000
vt 0.148272 0.250000
vt 0.148272 1.562500
vt -0.148272 1.562500
vt -0.148272 0.250000
vt 0.148272 0.250000
vt 0.148272 1.562500
vt -0.148272 1.562500
vt -0.148272 0.250000
vt 0.148272 0.250000
vt 0.148272 1.937500
vt -0.148272 1.937500
vt 0.732178 1.937500
vt 0.232178 1.937500
vt 0.232178 1.562500
vt 0.732178 1.562500
vt 3.992130 -0.295130
vt 3.968040 -0.143022
vt 3.435010 0.034101
vt 2.685300 0.055185
vt 1.727660 -0.232753
vt 0.728205 -0.199583
vt 0.292892 0.046390
vt 0.186621 -0.230457
vt -0.106272 -0.276847
vt 0.605463 -0.513351
vt 1.602760 -0.439918
vt 2.559670 -0.149527
vt 3.308830 -0.114107
vt 0.916004 1.937500
vt 0.762000 1.937500
vt 0.762000 1.562500
vt 0.916004 1.562500
vt 3.810690 1.937500
vt 3.249000 1.937500
vt 3.249000 1.562500
vt 3.810690 1.562500
vt 3.432690 1.937500
vt 2.682690 1.937500
vt 2.682690 1.562500
vt 3.432690 1.562500
vt 2.587470 1.937500
vt 1.587470 1.937500
vt 1.587470 1.562500
vt 2.587470 1.562500
vt 1.734420 1.937500
vt 0.734425 1.937500
vt 0.734425 1.562500
vt 1.734420 1.562500
vt -3.227720 1.937500
vt -3.934590 1.937500
vt -3.934590 1.562500
vt -3.227720 1.562500
vt -2.549750 1.937500
vt -3.299750 1.937500
vt -3.299750 1.562500
vt -2.549750 1.562500
vt -1.405950 1.937500
vt -2.405950 1.937500
vt -2.405950 1.562500
vt -1.405950 1.562500
vt -0.566131 1.937500
vt -1.566130 1.937500
vt -1.566130 1.562500
vt -0.566131 1.562500
vt 0.013549 1.937500
vt -0.736451 1.937500
vt -0.736451 1.562500
vt 0.013549 1.562500
vt -0.148272 0.250000
vt 0.148272 0.250000
vt 0.148272 1.937500
vt -0.148272 1.937500
vt -0.148272 1.562500
vt -0.148272 0.250000
vt 0.148272 0.250000
vt 0.148272 1.937500
vt -0.148272 1.937500
vt -0.156250 -0.270633
vt -0.156250 0.270633
vt -0.312500 -0.000000
vt -0.073223 0.011597
vt -0.046655 -0.057614
vt 0.156250 -0.270633
vt 1.000000 0.000000
vt 1.000000 0.062500
vt 0.666667 0.062500
vt 0.666667 0.000000
vt 1.333330 0.000000
vt 1.333330 0.062500
vt 1.666670 0.000000
vt 1.666670 0.062500
vt 2.000000 0.000000
vt 2.000000 0.062500
vt 0.333333 0.062500
vt -0.000000 0.062500
vt -0.000000 0.000000
vt 0.333333 -0.000000
vt -0.026568 0.069212
vt 0.156250 0.270633
vt 0.026568 -0.069212
vt 0.073223 -0.011597
vt 0.046655 0.057614
vt -0.026568 0.069212
vt -0.073223 0.011597
vt -0.182051 -0.049896
vt -0.431914 -0.058188
vt -0.671326 0.013796
vt -0.858752 0.008525
vt -0.992010 -0.035756
vt -0.998033 -0.073783
vt -0.827209 -0.028527
vt -0.639918 -0.037382
vt -0.400691 -0.109979
vt -0.151366 -0.128338
vt 0.026568 -0.069212
vt 0.073223 -0.011597
vt 0.046655 0.057614
vt 0.312500 -0.000000
vn 0.0000 -0.0000 1.0000
vn -0.4359 -0.9000 0.0000
vn -0.9922 -0.1246 0.0000
vn -0.9250 -0.3800 0.0000
vn -0.7298 -0.6837 0.0001
vn -0.7146 0.6995 0.0000
vn 0.4358 0.9000 0.0000
vn 0.4180 0.9084 -0.0000
vn 0.7146 -0.6995 0.0000
vn -0.3339 -0.9426 -0.0000
vn -0.3866 -0.9223 0.0000
vn -0.2171 -0.9762 0.0000
vn 0.1652 -0.9863 0.0000
vn 0.1620 -0.9868 0.0000
vn 0.1328 0.9911 -0.0000
vn 0.3170 0.9484 -0.0000
vn -0.2128 0.9771 0.0000
vn -0.2286 0.9735 0.0000
vn 0.1549 0.9879 0.0000
vn 0.6578 0.7532 -0.0000
vn 0.9922 0.1246 0.0000
vn -0.0000 0.0000 -1.0000
vn 0.5887 0.8083 0.0000
vn -0.5887 0.8083 0.0000
vn 1.0000 -0.0000 -0.0000
vn 0.5887 -0.8083 -0.0000
vn 0.0000 -1.0000 -0.0000
vn -1.0000 0.0000 0.0000
vn -0.9093 -0.4162 -0.0000
usemtl FrontColor.002
s 1
f 85/210/38 83/211/38 81/212/38 82/213/38 86/214/38 87/215/38
f 89/216/39 78/217/40 90/218/41 91/219/42 92/220/39
f 78/221/40 79/222/43 93/223/43 90/224/41
f 79/225/43 94/226/44 95/227/45 93/228/43
f 97/229/46 89/230/39 92/231/39 98/232/46
f 99/233/47 91/234/42 90/235/41 111/236/47
f 112/237/38 113/238/38 114/239/38 115/240/38 116/241/38 111/242/38 90/243/38 93/244/38 95/245/38 117/246/38 118/247/38 119/248/38 120/249/38
f 104/250/40 103/251/40 113/252/40 112/253/40
f 103/254/48 102/255/49 114/256/49 113/257/48
f 102/258/49 101/259/50 115/260/50 114/261/49
f 101/262/50 100/263/51 116/264/51 115/265/50
f 100/266/51 99/267/47 111/268/47 116/269/51
f 105/270/52 104/271/53 112/272/53 120/273/52
f 106/274/54 105/275/52 120/276/52 119/277/54
f 107/278/55 106/279/54 119/280/54 118/281/55
f 108/282/56 107/283/55 118/284/55 117/285/56
f 109/286/57 108/287/56 117/288/56 95/289/45
f 94/290/44 96/291/58 110/292/58 109/293/57 95/294/45
f 96/295/58 97/296/46 98/297/46 110/298/58
usemtl Metal_Corrogated_Shiny.003
f 75/299/59 76/300/59 77/301/59
f 76/300/59 75/299/59 78/302/59
f 78/302/59 75/299/59 79/303/59
f 79/303/59 75/299/59 80/304/59
f 81/305/60 80/306/60 75/307/61 82/308/61
f 81/305/60 83/309/62 84/310/62 80/306/60
f 83/309/62 85/311/63 88/312/63 84/310/62
f 87/313/64 76/314/64 88/312/63 85/311/63
f 77/315/65 76/316/66 87/317/66 86/318/65
f 75/307/61 77/315/65 86/318/65 82/308/61
f 76/300/59 89/319/59 88/320/59
f 89/319/59 76/300/59 78/302/59
f 79/303/59 80/304/59 94/321/59
f 94/321/59 80/304/59 96/322/59
f 88/320/59 96/322/59 80/304/59
f 88/320/59 97/323/59 96/322/59
f 88/320/59 89/319/59 97/323/59
f 92/324/59 91/325/59 99/326/59 100/327/59 101/328/59 102/329/59 103/330/59 104/331/59 105/332/59 106/333/59 107/334/59 108/335/59 109/336/59 110/337/59 98/338/59
f 88/320/59 80/304/59 84/339/59
o Mesh3_Component_1_1_Model.002
v 0.923873 0.037323 -0.020879
v 0.923873 0.037323 -0.101357
v 1.380730 0.037323 -0.101357
v 1.380730 0.037323 -0.020879
v 0.923873 0.761619 -0.020879
v 0.923873 0.761619 -0.101357
v 1.380730 0.761619 -0.020879
v 1.380730 0.761619 -0.101357
v 1.355350 0.057443 -0.101357
v 0.949254 0.057443 -0.101357
v 0.949254 0.741500 -0.101357
v 1.355350 0.741500 -0.101357
v 1.355350 0.057443 -0.091297
v 1.355350 0.741500 -0.091297
v 1.329970 0.359233 -0.091297
v 0.974634 0.359233 -0.091297
v 0.949254 0.057443 -0.091297
v 0.949254 0.741500 -0.091297
v 1.329970 0.721381 -0.091297
v 1.329970 0.359233 -0.030939
v 1.329970 0.721381 -0.030939
v 1.355350 0.741500 -0.030939
v 1.355350 0.057443 -0.030939
v 0.949254 0.057443 -0.030939
v 0.974634 0.359233 -0.030939
v 0.949254 0.741500 -0.030939
v 0.974634 0.721381 -0.030939
v 0.974634 0.721381 -0.091297
v 1.355350 0.741500 -0.020879
v 0.949254 0.741500 -0.020879
v 1.355350 0.057443 -0.020879
v 0.949254 0.057443 -0.020879
vt -28.933599 16.183100
vt 3.066350 16.183100
vt 3.066350 17.183100
vt -28.933599 17.183100
vt -10.183100 32.000000
vt -10.183100 68.000000
vt -16.183100 68.000000
vt -16.183100 32.000000
vt 10.183100 68.000000
vt 10.183100 32.000000
vt 16.183100 32.000000
vt 16.183100 68.000000
vt -1.066350 10.183100
vt 26.933599 10.183100
vt 26.933599 16.183100
vt -1.066350 16.183100
vt -26.933599 10.183100
vt 1.066350 10.183100
vt 1.066350 16.183100
vt -26.933599 16.183100
vt 3.066350 10.183100
vt -28.933599 10.183100
vt -28.933599 9.183120
vt 3.066350 9.183120
vt 5.066350 9.183120
vt 5.066350 17.183100
vt -30.933599 17.183100
vt -30.933599 9.183120
vt -9.183120 72.000000
vt -17.183100 72.000000
vt -17.183100 0.000000
vt -9.183120 0.000000
vt 30.933599 9.183120
vt 30.933599 17.183100
vt -5.066350 17.183100
vt -5.066350 9.183120
vt 9.183120 0.000000
vt 17.183100 0.000000
vt 17.183100 72.000000
vt 9.183120 72.000000
vt -30.933599 0.000000
vt -28.933599 2.000000
vt -30.933599 72.000000
vt 3.066350 2.000000
vt 5.066350 0.000000
vt 5.066350 72.000000
vt 3.066350 70.000000
vt -28.933599 70.000000
vt -16.183100 2.000000
vt -16.183100 70.000000
vt -17.183100 70.000000
vt -17.183100 2.000000
vt -28.933599 2.000000
vt -26.933599 32.000000
vt -28.933599 70.000000
vt 1.066350 32.000000
vt 3.066350 2.000000
vt 3.066350 70.000000
vt 16.183100 70.000000
vt 16.183100 2.000000
vt 17.183100 2.000000
vt 17.183100 70.000000
vt -26.933599 68.000000
vt 26.933599 32.000000
vt 28.933599 70.000000
vt 26.933599 68.000000
vt 28.933599 2.000000
vt -3.066350 2.000000
vt -1.066350 32.000000
vt -3.066350 70.000000
vt -1.066350 68.000000
vt 1.066350 68.000000
vt -10.183100 70.000000
vt -10.183100 2.000000
vt -9.183120 2.000000
vt -9.183120 70.000000
vt 10.183100 2.000000
vt 10.183100 70.000000
vt 9.183120 70.000000
vt 9.183120 2.000000
vt -5.066350 72.000000
vt -3.066350 2.000000
vt -3.066350 70.000000
vt -5.066350 0.000000
vt 28.933599 2.000000
vt 30.933599 0.000000
vt 30.933599 72.000000
vt 28.933599 70.000000
vt -0.056784 0.299687
vt 0.535808 0.299687
vt 0.535808 0.318206
vt -0.056784 0.318206
vt 0.535808 0.188576
vt -0.056784 0.188576
vt -0.056784 0.170058
vt 0.535808 0.170058
vt -0.044432 2.833330
vt -0.044432 1.333330
vt 1.122240 1.333330
vt 1.122240 2.833330
vt -1.122240 1.333330
vt 0.044432 1.333330
vt 0.044432 2.833330
vt -1.122240 2.833330
vn 0.0000 -1.0000 0.0000
vn -1.0000 -0.0000 0.0000
vn 1.0000 0.0000 0.0000
vn 0.0000 1.0000 0.0000
vn 0.0000 0.0000 -1.0000
vn -0.0000 -0.0000 1.0000
usemtl FrontColor.002
s 1
f 134/340/67 138/341/67 131/342/67 132/343/67
f 140/344/68 141/345/68 139/346/68 135/347/68
f 147/348/69 145/349/69 136/350/69 148/351/69
f 145/352/70 140/353/70 135/354/70 136/355/70
f 141/356/67 147/357/67 148/358/67 139/359/67
f 146/360/67 142/361/67 149/362/67 150/363/67
usemtl Color_C25.003
f 121/364/67 122/365/67 123/366/67 124/367/67
f 125/368/68 126/369/68 122/370/68 121/371/68
f 127/372/70 128/373/70 126/374/70 125/375/70
f 124/376/69 123/377/69 128/378/69 127/379/69
f 123/380/71 129/381/71 128/382/71
f 129/381/71 123/380/71 130/383/71
f 122/384/71 130/383/71 123/380/71
f 130/383/71 122/384/71 126/385/71
f 130/383/71 126/385/71 131/386/71
f 131/386/71 126/385/71 132/387/71
f 128/382/71 132/387/71 126/385/71
f 128/382/71 129/381/71 132/387/71
f 133/388/68 134/389/68 132/390/68 129/391/68
f 133/392/71 135/393/71 134/394/71
f 135/393/71 133/392/71 136/395/71
f 137/396/71 136/395/71 133/392/71
f 136/395/71 137/396/71 138/397/71
f 138/398/69 137/399/69 130/400/69 131/401/69
f 134/394/71 139/402/71 138/397/71
f 134/394/71 135/393/71 139/402/71
f 140/403/72 142/404/72 141/405/72
f 140/403/72 143/406/72 142/404/72
f 143/406/72 140/403/72 144/407/72
f 145/408/72 144/407/72 140/403/72
f 144/407/72 145/408/72 146/409/72
f 146/409/72 145/408/72 147/410/72
f 136/395/71 138/397/71 148/411/71
f 148/411/71 138/397/71 139/402/71
f 141/405/72 142/404/72 147/410/72
f 146/409/72 147/410/72 142/404/72
f 142/412/68 143/413/68 151/414/68 149/415/68
f 144/416/69 146/417/69 150/418/69 152/419/69
f 125/420/72 152/421/72 150/422/72
f 121/423/72 152/421/72 125/420/72
f 152/421/72 121/423/72 151/424/72
f 124/425/72 151/424/72 121/423/72
f 151/424/72 124/425/72 127/426/72
f 151/424/72 127/426/72 149/427/72
f 149/427/72 127/426/72 150/422/72
f 125/420/72 150/422/72 127/426/72
usemtl Metal_Aluminum_Anodized.003
f 137/428/70 133/429/70 129/430/70 130/431/70
f 143/432/70 144/433/70 152/434/70 151/435/70
usemtl Translucent_Glass_Tinted.003
f 147/436/72 145/437/72 140/438/72 141/439/72
f 135/440/71 136/441/71 148/442/71 139/443/71
