# Alias OBJ Model File
# Exported from SketchUp, (c) 2000-2012 Trimble Navigation Limited
# File units = meters

mtllib Untitled.mtl

g Mesh1 Doorknob_decorative1 Component_1_1 Model

usemtl Metal_Corrogated_Shiny
v 1.32198 0.328373 -0.0284242
vt -0.15625 -0.270633
vn -2.86835e-14 3.93823e-14 1
v 1.32198 0.350152 -0.0284242
vt -0.15625 0.270633
v 1.31405 0.339262 -0.0284242
vt -0.3125 -2.46139e-15
f 1/1/1 2/2/1 3/3/1

v 1.3262 0.339729 -0.0284242
vt -0.073223 0.0115974
f 2/2/1 1/1/1 4/4/1

v 1.32754 0.336944 -0.0284242
vt -0.0466551 -0.0576143
f 4/4/1 1/1/1 5/5/1

v 1.33784 0.328373 -0.0284242
vt 0.15625 -0.270633
f 5/5/1 1/1/1 6/6/1

v 1.33784 0.328373 -0.0309391
vt 1 9.37645e-17
vn 0.588733 -0.808327 6.90117e-15
vt 1 0.0625
vt 0.666667 0.0625
vn -0.588733 -0.808327 6.36132e-15
v 1.32198 0.328373 -0.0309391
vt 0.666667 9.37645e-17
f 7/7/2 6/8/2 1/9/3 8/10/3 

vt 1 8.67535e-16
v 1.34578 0.339262 -0.0309391
vt 1.33333 1.01098e-15
vn 1 -2.2865e-16 6.02385e-15
v 1.34578 0.339262 -0.0284242
vt 1.33333 0.0625
f 7/11/2 9/12/4 10/13/4 6/8/2 

usemtl FrontColor
v 1.33784 0.350152 -0.0309391
vt -0.625 1.08253
vn 0 0 -1
vt -1.25 0
vt -0.625 -1.08253
vt 0.625 -1.08253
v 1.31405 0.339262 -0.0309391
vt 1.25 0
v 1.32198 0.350152 -0.0309391
vt 0.625 1.08253
f 11/14/5 9/15/5 7/16/5 8/17/5 12/18/5 13/19/5 

usemtl Metal_Corrogated_Shiny
vt 1.33333 -1.43835e-16
vt 1.66667 1.53903e-16
vn 0.588733 0.808327 6.89248e-15
v 1.33784 0.350152 -0.0284242
vt 1.66667 0.0625
f 9/20/4 11/21/6 14/22/6 10/13/4 

vt 2 5.37854e-16
vn 8.96359e-16 1 6.21725e-15
vt 2 0.0625
vt 1.66667 5.37854e-16
f 13/23/7 2/24/7 14/22/6 11/25/6 

vt 0.333333 0.0625
vn -1 1.52433e-16 5.27026e-15
vt -3.05311e-16 0.0625
vn -0.909295 0.416152 4.93407e-15
vt -1.36002e-15 1.71992e-16
vt 0.333333 -9.40688e-18
f 3/26/8 2/27/9 13/28/9 12/29/8 

vt 0.333333 -5.99504e-17
vt 0.666667 -3.84139e-16
f 1/9/3 3/26/8 12/30/8 8/31/3 

v 1.32856 0.342047 -0.0284242
vt -0.0265679 0.0692117
vt 0.15625 0.270633
f 2/2/1 15/32/1 14/33/1

f 15/32/1 2/2/1 4/4/1

usemtl FrontColor
vt -0.148272 0.25
vn -0.435837 0.900026 3.3677e-14
vt 0.148272 0.25
vn -0.99221 0.124573 9.19359e-14
v 1.3262 0.339729 -0.0152209
vt 0.148272 1.5625
vn -0.924981 0.380012 6.33609e-14
v 1.3262 0.339729 -0.0114485
vt 0.148272 1.9375
vn -0.729757 0.683707 3.51886e-14
v 1.32856 0.342047 -0.0114485
vt -0.148272 1.9375
f 15/34/10 4/35/11 16/36/12 17/37/13 18/38/10 

vn -0.714605 -0.699528 7.24754e-14
v 1.32754 0.336944 -0.0152209
vt -0.148272 1.5625
f 4/34/11 5/35/14 19/36/14 16/39/12 

v 1.33126 0.336478 -0.0284242
vn 0.435837 -0.900026 -3.3677e-14
v 1.33126 0.336478 -0.0152209
vn 0.418047 -0.908425 -1.74927e-14
f 5/34/14 20/35/15 21/36/16 19/39/14 

usemtl Metal_Corrogated_Shiny
vt 0.0265679 -0.0692117
f 5/5/1 6/6/1 20/40/1

v 1.33363 0.338796 -0.0284242
vt 0.073223 -0.0115974
f 20/40/1 6/6/1 22/41/1

f 14/33/1 22/41/1 6/6/1

v 1.33228 0.341581 -0.0284242
vt 0.0466551 0.0576143
f 14/33/1 23/42/1 22/41/1

f 14/33/1 15/32/1 23/42/1

usemtl FrontColor
vn 0.714605 0.699528 -7.24754e-14
v 1.33228 0.341581 -0.0114485
f 23/34/17 15/35/10 18/37/10 24/38/17 

usemtl Metal_Corrogated_Shiny
vn 2.8582e-15 1.98803e-14 1
v 1.32067 0.337255 -0.0114485
vt -0.182051 -0.0498957
v 1.30799 0.336921 -0.0114485
vt -0.431914 -0.0581883
v 1.29584 0.339818 -0.0114485
vt -0.671326 0.0137963
v 1.28632 0.339606 -0.0114485
vt -0.858752 0.00852515
v 1.27956 0.337824 -0.0114485
vt -0.99201 -0.0357556
v 1.27925 0.336294 -0.0114485
vt -0.998033 -0.0737826
v 1.28792 0.338115 -0.0114485
vt -0.827209 -0.0285269
v 1.29743 0.337758 -0.0114485
vt -0.639918 -0.0373817
v 1.30957 0.334837 -0.0114485
vt -0.400691 -0.109979
v 1.32223 0.334098 -0.0114485
vt -0.151366 -0.128338
v 1.33126 0.336478 -0.0114485
v 1.33363 0.338796 -0.0114485
f 18/32/18 17/4/18 25/43/18 26/44/18 27/45/18 28/46/18 29/47/18 30/48/18 31/49/18 32/50/18 33/51/18 34/52/18 35/40/18 36/41/18 24/42/18 

usemtl FrontColor
vt 0.732178 1.9375
vn -0.333901 0.942608 -1.11521e-14
vt 0.232178 1.9375
vt 0.232178 1.5625
v 1.32067 0.337255 -0.0152209
vt 0.732178 1.5625
f 25/53/19 17/54/13 16/55/12 37/56/19 

v 1.27925 0.336294 -0.0152209
vt 3.99213 -0.29513
vn -3.44414e-15 -1.25977e-14 -1
v 1.27956 0.337824 -0.0152209
vt 3.96804 -0.143022
v 1.28632 0.339606 -0.0152209
vt 3.43501 0.0341006
v 1.29584 0.339818 -0.0152209
vt 2.6853 0.0551854
v 1.30799 0.336921 -0.0152209
vt 1.72766 -0.232753
vt 0.728205 -0.199583
vt 0.292892 0.0463895
vt 0.186621 -0.230457
vt -0.106272 -0.276847
v 1.32223 0.334098 -0.0152209
vt 0.605463 -0.513351
v 1.30957 0.334837 -0.0152209
vt 1.60276 -0.439918
v 1.29743 0.337758 -0.0152209
vt 2.55967 -0.149527
v 1.28792 0.338115 -0.0152209
vt 3.30883 -0.114107
f 38/57/20 39/58/20 40/59/20 41/60/20 42/61/20 37/62/20 16/63/20 19/64/20 21/65/20 43/66/20 44/67/20 45/68/20 46/69/20 

vt 0.916004 1.9375
vn -0.99221 0.124573 5.78007e-16
vt 0.762 1.9375
vt 0.762 1.5625
vt 0.916004 1.5625
f 30/70/21 29/71/21 39/72/21 38/73/21 

vt 3.81069 1.9375
vn -0.386599 0.922248 -1.07815e-14
vt 3.249 1.9375
vn -0.21705 0.97616 -1.18276e-14
vt 3.249 1.5625
vt 3.81069 1.5625
f 29/74/22 28/75/23 40/76/23 39/77/22 

vt 3.43269 1.9375
vt 2.68269 1.9375
vn 0.165166 0.986266 -1.27821e-14
vt 2.68269 1.5625
vt 3.43269 1.5625
f 28/78/23 27/79/24 41/80/24 40/81/23 

vt 2.58747 1.9375
vt 1.58747 1.9375
vn 0.162049 0.986783 -1.27819e-14
vt 1.58747 1.5625
vt 2.58747 1.5625
f 27/82/24 26/83/25 42/84/25 41/85/24 

vt 1.73442 1.9375
vt 0.734425 1.9375
vt 0.734425 1.5625
vt 1.73442 1.5625
f 26/86/25 25/87/19 37/88/19 42/89/25 

vt -3.22772 1.9375
vn 0.132865 -0.991134 1.21985e-14
vt -3.93459 1.9375
vn 0.316973 -0.948434 1.12621e-14
vt -3.93459 1.5625
vt -3.22772 1.5625
f 31/90/26 30/91/27 38/92/27 46/93/26 

vt -2.54975 1.9375
vn -0.212781 -0.9771 1.27697e-14
vt -3.29975 1.9375
vt -3.29975 1.5625
vt -2.54975 1.5625
f 32/94/28 31/95/26 46/96/26 45/97/28 

vt -1.40595 1.9375
vn -0.228641 -0.973511 1.27588e-14
vt -2.40595 1.9375
vt -2.40595 1.5625
vt -1.40595 1.5625
f 33/98/29 32/99/28 45/100/28 44/101/29 

vt -0.566131 1.9375
vn 0.154903 -0.98793 1.21104e-14
vt -1.56613 1.9375
vt -1.56613 1.5625
vt -0.566131 1.5625
f 34/102/30 33/103/29 44/104/29 43/105/30 

vt 0.0135489 1.9375
vn 0.65774 -0.753245 -3.61419e-14
vt -0.736451 1.9375
vt -0.736451 1.5625
vt 0.0135489 1.5625
f 35/106/31 34/107/30 43/108/30 21/109/16 

vn 0.99221 -0.124573 -9.19359e-14
f 20/34/15 22/35/32 36/37/32 35/38/31 21/39/16 

f 22/34/32 23/35/17 24/37/17 36/38/32 

usemtl Metal_Corrogated_Shiny
vt 0.3125 -2.46139e-15
f 14/33/1 6/6/1 10/110/1

g Mesh2 Doorknob_decorative2 Component_1_1 Model

v 1.31669 0.348894 -0.0938121
vn -2.86835e-14 -3.93823e-14 -1
v 1.31669 0.327114 -0.0938121
v 1.30875 0.338004 -0.0938121
f 47/1/33 48/2/33 49/3/33

v 1.3209 0.337537 -0.0938121
f 48/2/33 47/1/33 50/4/33

v 1.32225 0.340322 -0.0938121
f 50/4/33 47/1/33 51/5/33

v 1.33255 0.348894 -0.0938121
f 51/5/33 47/1/33 52/6/33

v 1.33255 0.348894 -0.0912972
vn 0.588733 0.808327 -6.90117e-15
vn -0.588733 0.808327 -6.36132e-15
v 1.31669 0.348894 -0.0912972
f 53/7/34 52/8/34 47/9/35 54/10/35 

v 1.34048 0.338004 -0.0912972
vn 1 3.71626e-13 -6.02385e-15
v 1.34048 0.338004 -0.0938121
f 53/11/34 55/12/36 56/13/36 52/8/34 

usemtl FrontColor
v 1.33255 0.327114 -0.0912972
vn 0 0 1
v 1.30875 0.338004 -0.0912972
v 1.31669 0.327114 -0.0912972
f 57/14/37 55/15/37 53/16/37 54/17/37 58/18/37 59/19/37 

usemtl Metal_Corrogated_Shiny
vn 0.588733 -0.808327 -6.89248e-15
v 1.33255 0.327114 -0.0938121
f 55/20/36 57/21/38 60/22/38 56/13/36 

vn 5.91944e-13 -1 -6.21725e-15
f 59/23/39 48/24/39 60/22/38 57/25/38 

vn -1 -3.7155e-13 -5.27026e-15
vn -0.909295 -0.416152 -4.93407e-15
f 49/26/40 48/27/41 59/28/41 58/29/40 

f 47/9/35 49/26/40 58/30/40 54/31/35 

v 1.32327 0.335219 -0.0938121
f 48/2/33 61/32/33 60/33/33

f 61/32/33 48/2/33 50/4/33

usemtl FrontColor
vn -0.435837 -0.900026 -3.3677e-14
vn -0.99221 -0.124573 -9.19359e-14
v 1.3209 0.337537 -0.107015
vn -0.924981 -0.380012 -6.33609e-14
v 1.3209 0.337537 -0.110788
vn -0.729757 -0.683707 -3.51886e-14
v 1.32327 0.335219 -0.110788
f 61/34/42 50/35/43 62/36/44 63/37/45 64/38/42 

vn -0.714605 0.699528 -7.24754e-14
v 1.32225 0.340322 -0.107015
f 50/34/43 51/35/46 65/36/46 62/39/44 

v 1.32597 0.340789 -0.0938121
vn 0.435837 0.900026 3.3677e-14
v 1.32597 0.340789 -0.107015
vn 0.418047 0.908425 1.74927e-14
f 51/34/46 66/35/47 67/36/48 65/39/46 

usemtl Metal_Corrogated_Shiny
f 51/5/33 52/6/33 66/40/33

v 1.32833 0.338471 -0.0938121
f 66/40/33 52/6/33 68/41/33

f 60/33/33 68/41/33 52/6/33

v 1.32699 0.335686 -0.0938121
f 60/33/33 69/42/33 68/41/33

f 60/33/33 61/32/33 69/42/33

usemtl FrontColor
vn 0.714605 -0.699528 7.24754e-14
v 1.32699 0.335686 -0.110788
f 69/34/49 61/35/42 64/37/42 70/38/49 

usemtl Metal_Corrogated_Shiny
vn 2.8582e-15 -1.98803e-14 -1
v 1.31538 0.340012 -0.110788
v 1.30269 0.340345 -0.110788
v 1.29054 0.337449 -0.110788
v 1.28103 0.337661 -0.110788
v 1.27426 0.339443 -0.110788
v 1.27396 0.340973 -0.110788
v 1.28263 0.339152 -0.110788
v 1.29213 0.339508 -0.110788
v 1.30428 0.342429 -0.110788
v 1.31693 0.343168 -0.110788
v 1.32597 0.340789 -0.110788
v 1.32833 0.338471 -0.110788
f 64/32/50 63/4/50 71/43/50 72/44/50 73/45/50 74/46/50 75/47/50 76/48/50 77/49/50 78/50/50 79/51/50 80/52/50 81/40/50 82/41/50 70/42/50 

usemtl FrontColor
vn -0.333901 -0.942608 1.11521e-14
v 1.31538 0.340012 -0.107015
f 71/53/51 63/54/45 62/55/44 83/56/51 

v 1.27396 0.340973 -0.107015
vn -3.44414e-15 1.25977e-14 1
v 1.27426 0.339443 -0.107015
v 1.28103 0.337661 -0.107015
v 1.29054 0.337449 -0.107015
v 1.30269 0.340345 -0.107015
v 1.31693 0.343168 -0.107015
v 1.30428 0.342429 -0.107015
v 1.29213 0.339508 -0.107015
v 1.28263 0.339152 -0.107015
f 84/57/52 85/58/52 86/59/52 87/60/52 88/61/52 83/62/52 62/63/52 65/64/52 67/65/52 89/66/52 90/67/52 91/68/52 92/69/52 

vn -0.99221 -0.124573 -5.78007e-16
f 76/70/53 75/71/53 85/72/53 84/73/53 

vn -0.386599 -0.922248 1.07815e-14
vn -0.21705 -0.97616 1.18276e-14
f 75/74/54 74/75/55 86/76/55 85/77/54 

vn 0.165166 -0.986266 1.27821e-14
f 74/78/55 73/79/56 87/80/56 86/81/55 

vn 0.162049 -0.986783 1.27819e-14
f 73/82/56 72/83/57 88/84/57 87/85/56 

f 72/86/57 71/87/51 83/88/51 88/89/57 

vn 0.132865 0.991134 -1.21985e-14
vn 0.316973 0.948434 -1.12621e-14
f 77/90/58 76/91/59 84/92/59 92/93/58 

vn -0.212781 0.9771 -1.27697e-14
f 78/94/60 77/95/58 92/96/58 91/97/60 

vn -0.228641 0.973511 -1.27588e-14
f 79/98/61 78/99/60 91/100/60 90/101/61 

vn 0.154903 0.98793 -1.21104e-14
f 80/102/62 79/103/61 90/104/61 89/105/62 

vn 0.65774 0.753245 3.61419e-14
f 81/106/63 80/107/62 89/108/62 67/109/48 

vn 0.99221 0.124573 9.19359e-14
f 66/34/47 68/35/64 82/37/64 81/38/63 67/39/48 

f 68/34/64 69/35/49 70/37/49 82/38/64 

usemtl Metal_Corrogated_Shiny
f 60/33/33 52/6/33 56/110/33

g Mesh3 Component_1_1 Model

usemtl Color_C25
v 0.923873 0.0373232 -0.0208795
vt 5.06635 9.18312
vn 0 -1 -0
v 0.923873 0.0373232 -0.101357
vt 5.06635 17.1831
v 1.38073 0.0373232 -0.101357
vt -30.9336 17.1831
v 1.38073 0.0373232 -0.0208795
vt -30.9336 9.18312
f 93/111/65 94/112/65 95/113/65 96/114/65 

v 0.923873 0.761619 -0.0208795
vt -9.18312 72
vn -1 0 -0
v 0.923873 0.761619 -0.101357
vt -17.1831 72
vt -17.1831 1.42109e-14
vt -9.18312 1.42109e-14
f 97/115/66 98/116/66 94/117/66 93/118/66 

v 1.38073 0.761619 -0.0208795
vt 30.9336 9.18312
vn 0 1 -0
v 1.38073 0.761619 -0.101357
vt 30.9336 17.1831
vt -5.06635 17.1831
vt -5.06635 9.18312
f 99/119/67 100/120/67 98/121/67 97/122/67 

vt 9.18312 1.42109e-14
vn 1 0 -0
vt 17.1831 1.42109e-14
vt 17.1831 72
vt 9.18312 72
f 96/123/68 95/124/68 100/125/68 99/126/68 

vt -30.9336 1.42109e-14
v 1.35535 0.0574426 -0.101357
vt -28.9336 2
vt -30.9336 72
f 95/127/5 101/128/5 100/129/5

v 0.949254 0.0574426 -0.101357
vt 3.06635 2
f 101/128/5 95/127/5 102/130/5

vt 5.06635 1.42109e-14
f 94/131/5 102/130/5 95/127/5

vt 5.06635 72
f 102/130/5 94/131/5 98/132/5

v 0.949254 0.7415 -0.101357
vt 3.06635 70
f 102/130/5 98/132/5 103/133/5

v 1.35535 0.7415 -0.101357
vt -28.9336 70
f 103/133/5 98/132/5 104/134/5

f 100/129/5 104/134/5 98/132/5

f 100/129/5 101/128/5 104/134/5

v 1.35535 0.0574426 -0.0912972
vt -16.1831 2
v 1.35535 0.7415 -0.0912972
vt -16.1831 70
vt -17.1831 70
vt -17.1831 2
f 105/135/66 106/136/66 104/137/66 101/138/66 

v 1.32997 0.359233 -0.0912972
vt -26.9336 32
f 105/128/5 107/139/5 106/134/5

v 0.974634 0.359233 -0.0912972
vt 1.06635 32
f 107/139/5 105/128/5 108/140/5

v 0.949254 0.0574426 -0.0912972
f 109/130/5 108/140/5 105/128/5

v 0.949254 0.7415 -0.0912972
f 108/140/5 109/130/5 110/133/5

vt 16.1831 70
vt 16.1831 2
vt 17.1831 2
vt 17.1831 70
f 110/141/68 109/142/68 102/143/68 103/144/68 

usemtl Metal_Aluminum_Anodized
vt -0.0567844 0.299687
vt 0.535808 0.299687
vt 0.535808 0.318206
vt -0.0567844 0.318206
f 109/145/67 105/146/67 101/147/67 102/148/67 

usemtl FrontColor
vt -28.9336 16.1831
vt 3.06635 16.1831
vt 3.06635 17.1831
vt -28.9336 17.1831
f 106/149/65 110/150/65 103/151/65 104/152/65 

usemtl Color_C25
v 1.32997 0.721381 -0.0912972
vt -26.9336 68
f 106/134/5 111/153/5 110/133/5

f 106/134/5 107/139/5 111/153/5

usemtl FrontColor
v 1.32997 0.359233 -0.0309391
vt -10.1831 32
v 1.32997 0.721381 -0.0309391
vt -10.1831 68
vt -16.1831 68
vt -16.1831 32
f 112/154/66 113/155/66 111/156/66 107/157/66 

usemtl Color_C25
vt 26.9336 32
v 1.35535 0.7415 -0.0309391
vt 28.9336 70
vt 26.9336 68
f 112/158/37 114/159/37 113/160/37

v 1.35535 0.0574426 -0.0309391
vt 28.9336 2
f 112/158/37 115/161/37 114/159/37

v 0.949254 0.0574426 -0.0309391
vt -3.06635 2
f 115/161/37 112/158/37 116/162/37

v 0.974634 0.359233 -0.0309391
vt -1.06635 32
f 117/163/37 116/162/37 112/158/37

v 0.949254 0.7415 -0.0309391
vt -3.06635 70
f 116/162/37 117/163/37 118/164/37

v 0.974634 0.721381 -0.0309391
vt -1.06635 68
f 118/164/37 117/163/37 119/165/37

usemtl FrontColor
vt 10.1831 68
vt 10.1831 32
vt 16.1831 32
v 0.974634 0.721381 -0.0912972
vt 16.1831 68
f 119/166/68 117/167/68 108/168/68 120/169/68 

usemtl Translucent_Glass_Tinted
vt -0.0444315 2.83333
vt -0.0444315 1.33333
vt 1.12224 1.33333
vt 1.12224 2.83333
f 119/170/37 117/171/37 112/172/37 113/173/37 

usemtl FrontColor
vt -1.06635 10.1831
vt 26.9336 10.1831
vt 26.9336 16.1831
vt -1.06635 16.1831
f 117/174/67 112/175/67 107/176/67 108/177/67 

usemtl Translucent_Glass_Tinted
vt -1.12224 1.33333
vt 0.0444315 1.33333
vt 0.0444315 2.83333
vt -1.12224 2.83333
f 107/178/5 108/179/5 120/180/5 111/181/5 

usemtl Color_C25
vt 1.06635 68
f 108/140/5 110/133/5 120/182/5

f 120/182/5 110/133/5 111/153/5

usemtl FrontColor
vt -26.9336 10.1831
vt 1.06635 10.1831
vt 1.06635 16.1831
vt -26.9336 16.1831
f 113/183/65 119/184/65 120/185/65 111/186/65 

usemtl Color_C25
f 113/160/37 114/159/37 119/165/37

f 118/164/37 119/165/37 114/159/37

usemtl FrontColor
vt 3.06635 10.1831
vt -28.9336 10.1831
v 1.35535 0.7415 -0.0208795
vt -28.9336 9.18312
v 0.949254 0.7415 -0.0208795
vt 3.06635 9.18312
f 118/187/65 114/188/65 121/189/65 122/190/65 

usemtl Color_C25
vt -10.1831 70
vt -10.1831 2
v 1.35535 0.0574426 -0.0208795
vt -9.18312 2
vt -9.18312 70
f 114/191/66 115/192/66 123/193/66 121/194/66 

usemtl Metal_Aluminum_Anodized
vt 0.535808 0.188576
vt -0.0567844 0.188576
v 0.949254 0.0574426 -0.0208795
vt -0.0567844 0.170058
vt 0.535808 0.170058
f 115/195/67 116/196/67 124/197/67 123/198/67 

usemtl Color_C25
vt 10.1831 2
vt 10.1831 70
vt 9.18312 70
vt 9.18312 2
f 116/199/68 118/200/68 122/201/68 124/202/68 

vt -5.06635 72
f 97/203/37 124/162/37 122/164/37

vt -5.06635 1.42109e-14
f 93/204/37 124/162/37 97/203/37

f 124/162/37 93/204/37 123/161/37

vt 30.9336 1.42109e-14
f 96/205/37 123/161/37 93/204/37

vt 30.9336 72
f 123/161/37 96/205/37 99/206/37

f 123/161/37 99/206/37 121/159/37

f 121/159/37 99/206/37 122/164/37

f 97/203/37 122/164/37 99/206/37

g Mesh4 Model

usemtl FrontColor
v 0 0 -3.31
vt 0 130.315
v 0.162581 0 -3.14742
vt -6.40082 123.914
v 0 0 -0
vt 0 0
f 125/207/65 126/208/65 127/209/65

v 4.47 0 -3.31
vt -175.984 130.315
f 126/208/65 125/207/65 128/210/65

vt -175.984 0
v 0 1.08 -3.31
vt 0 42.5197
v 4.47 1.08 -3.31
vt -175.984 42.5197
f 128/211/5 125/209/5 129/212/5 130/213/5 

vt -130.315 0
v 0 1.08 -0
vt -130.315 42.5197
f 125/214/66 127/209/66 131/212/66 129/215/66 

v 0.898432 0 -0
vt 35.3713 0
v 0.898432 0.795775 -0
vt 35.3713 31.3297
v 1.41405 0.795775 -0
vt 55.6711 31.3297
v 1.41405 0 -0
vt 55.6711 0
v 4.47 0 -0
vt 175.984 0
v 4.47 1.08 -0
vt 175.984 42.5197
f 127/209/37 132/216/37 133/217/37 134/218/37 135/219/37 136/220/37 137/221/37 131/212/37 

v 0.162581 0 -0.162581
vt -6.40082 6.40082
vt -35.3713 0
f 127/209/65 138/222/65 132/223/65

f 138/222/65 127/209/65 126/208/65

v 4.30742 0 -0.162581
vt -169.583 6.40082
v 4.30742 0 -3.14742
vt -169.583 123.914
f 139/224/65 138/222/65 126/208/65 140/225/65 

f 132/223/65 138/222/65 139/224/65

vt -6.40082 0
v 0.931751 0.0333193 -0.162581
vt -36.6831 1.31178
vt -169.583 0
f 138/226/5 141/227/5 139/228/5

v 0.162581 1.08 -0.162581
vt -6.40082 42.5197
f 141/227/5 138/226/5 142/229/5

vt 6.40082 0
vt 123.914 0
v 0.162581 1.08 -3.14742
vt 123.914 42.5197
vt 6.40082 42.5197
f 138/230/68 126/231/68 143/232/68 142/233/68 

vt 169.583 0
v 4.30742 1.08 -3.14742
vt 169.583 42.5197
f 126/230/37 140/234/37 144/235/37 143/233/37 

f 126/208/65 128/210/65 140/225/65

f 140/225/65 128/210/65 139/224/65

f 136/211/65 139/224/65 128/210/65

vt -55.6711 0
f 135/236/65 139/224/65 136/211/65

f 132/223/65 139/224/65 135/236/65

v 1.38073 0.0333193 -0
vt 54.3593 1.31178
f 135/219/37 145/237/37 132/216/37

f 145/237/37 135/219/37 134/218/37

v 1.38073 0.762455 -0
vt 54.3593 30.0179
f 145/237/37 134/218/37 146/238/37

v 0.931751 0.762455 -0
vt 36.6831 30.0179
f 146/238/37 134/218/37 147/239/37

f 133/217/37 147/239/37 134/218/37

v 0.931751 0.0333193 -0
vt 36.6831 1.31178
f 133/217/37 148/240/37 147/239/37

f 132/216/37 148/240/37 133/217/37

f 148/240/37 132/216/37 145/237/37

vt 36.6831 0
vt 54.3593 0
v 1.38073 0.0333193 -0.162581
vt 54.3593 6.40082
vt 36.6831 6.40082
f 148/241/67 145/242/67 149/243/67 141/244/67 

vt 0 1.31178
vt 0 30.0179
v 1.38073 0.762455 -0.162581
vt -6.40082 30.0179
vt -6.40082 1.31178
f 145/245/66 146/246/66 150/247/66 149/248/66 

vt -54.3593 0
vt -36.6831 0
v 0.931751 0.762455 -0.162581
vt -36.6831 6.40082
vt -54.3593 6.40082
f 146/249/65 147/250/65 151/251/65 150/252/65 

vt 6.40082 1.31178
vt 6.40082 30.0179
f 147/246/68 148/245/68 141/253/68 151/254/68 

vt -36.6831 30.0179
f 141/227/5 142/229/5 151/255/5

vt -54.3593 30.0179
f 151/255/5 142/229/5 150/256/5

v 4.30742 1.08 -0.162581
vt -169.583 42.5197
f 152/257/5 150/256/5 142/229/5

vt -54.3593 1.31178
f 152/257/5 149/258/5 150/256/5

f 139/228/5 149/258/5 152/257/5

f 149/258/5 139/228/5 141/227/5

vt -123.914 0
vt -123.914 42.5197
f 140/259/66 139/226/66 152/229/66 144/260/66 

vt 169.583 6.40082
vt 169.583 123.914
f 152/261/67 137/220/67 144/262/67

vt 6.40082 6.40082
f 142/263/67 137/220/67 152/261/67

f 142/263/67 131/209/67 137/220/67

f 131/209/67 142/263/67 129/207/67

vt 6.40082 123.914
f 143/264/67 129/207/67 142/263/67

vt 175.984 130.315
f 129/207/67 143/264/67 130/265/67

f 130/265/67 143/264/67 144/262/67

f 130/265/67 144/262/67 137/220/67

vt 130.315 0
vt 130.315 42.5197
f 136/209/68 128/266/68 130/267/68 137/212/68 

